<?xml version="1.0" standalone="no"?>
<svg xmlns="http://www.w3.org/2000/svg" viewBox="0 0 61 69" width="61" height="69"><g fill="#ead017" color="#ead017" transform="translate(12.921 0) scale(0.625) "><svg width="56.0" height="54.0" x="0.0" y="0.0" viewBox="0 0 56 54"><path fill="currentColor" fill-rule="evenodd" d="M20.14 11.806c.69 0 1.248.302 1.248.676 0 .373-.559.676-1.248.676-.69 0-1.248-.303-1.248-.676 0-.374.559-.676 1.248-.676m20.405 21.523l.534.01c5.6.225 9.9 4.467 9.9 10.137 0 0 .297 5.7-3.224 9.674-.285.323-.808.047-.72-.374.324-1.532.214-3.749-2.713-4.567-2.838-.792-5.67-.042-8.392.814-5.072 1.593-10.064 4.536-15.43 4.937-2.73.204-5.532-.369-7.9-1.742-4.398-2.548-6.242-7.656-6.572-12.497-.023-.334-.097-1.047.156-1.103.367-.077.692.66.855.874.337.445.72.855 1.141 1.221 2.783 2.425 6.471 2.177 9.853 1.42 3.721-.832 6.965-2.528 10.252-4.388 3.181-1.8 6.462-3.691 10.13-4.252.88-.135 1.774-.19 2.664-.154zm1.404 5.878c-1.67-.286-3.379-.148-5.01.232-1.627.412-3.168 1.058-4.6 1.858a29.406 29.406 0 0 0-4.054 2.738c1.534-.572 3.004-1.25 4.477-1.864 1.477-.602 2.954-1.16 4.47-1.518a16.128 16.128 0 0 1 4.608-.477 13.26 13.26 0 0 1 4.59 1.103c-1.223-1.096-2.818-1.798-4.481-2.072zM21.752 0c1.066 0 3.484 3.12 3.484 3.12S32.44 7.49 35.533 15.653c3.094 8.165-3.068 15.965-3.068 15.965a21.32 21.32 0 0 0 .759-4.477c.047-.834.038-1.671-.026-2.503-.022-.278-.138-.71-.229-1.134-.056-.262-.4-.307-.537-.077a4.679 4.679 0 0 1-1.004 1.177c-.049-1.565-.206-3.147-.744-4.618-.462-1.262-1.228-2.444-2.29-3.253a.252.252 0 0 0-.401.243 4.672 4.672 0 0 1-.116 2.121c-1.659-1.66-3.973-2.53-6.294-2.886-1.924-.295-3.877-.266-5.827-.224-.377.008-.494.51-.164.692 1.58.875 3.253 1.227 5.08 1.589 2.24.444 4.149 1.495 5.5 3.366 2.03 2.809 1.345 9.595.963 12.34a2.533 2.533 0 0 1-1.21 1.827c-2.498 1.493-5.553 2.77-9.429 3.567-1.91.392-3.986.347-5.839-.3-.903-.315-1.758-.85-2.29-1.646-.653-.976-.749-2.253-.45-3.389.3-1.136.96-2.146 1.717-3.044 2.322-2.753 5.518-4.529 8.224-6.853 1.123-.964 2.342-2.005 2.822-3.471.023-.068.295-1.26.084-1.267-3.207-.114-8.018-1.093-9.7-4.246-.1-.185-.188-.397-.136-.6.065-.257.325-.407.56-.528 2.168-1.113 4.257-2.135 6.102-3.767a19.55 19.55 0 0 0 2.2-2.29c.297-.364 1.429-1.346 1.39-1.83 0-.001-.494-6.137.572-6.137z"></path></svg></g><line x1="13.970000000000002" y1="39.75" x2="46.870000000000005" y2="39.75" stroke="#000000" stroke-linecap="round"></line><path fill="#000000" fill-rule="nonzero" d="M9 0.89Q11.38 0.89 13.27 1.61Q15.17 2.33 16.28 3.73Q17.40 5.14 17.40 7.15L17.40 7.15L12.34 7.15Q12.34 6.12 11.42 5.48Q10.51 4.85 9.22 4.85L9.22 4.85Q7.34 4.85 6.38 5.84Q5.42 6.84 5.42 8.66L5.42 8.66L5.42 10.20Q5.42 12.02 6.38 13.02Q7.34 14.02 9.22 14.02L9.22 14.02Q10.51 14.02 11.42 13.40Q12.34 12.79 12.34 11.83L12.34 11.83L8.59 11.83L8.59 8.47L17.40 8.47L17.40 17.69L14.66 17.69L14.14 16.06Q11.88 17.98 8.23 17.98L8.23 17.98Q4.13 17.98 2.06 15.83Q0 13.68 0 9.43L0 9.43Q0 5.23 2.34 3.06Q4.68 0.89 9 0.89L9 0.89ZM25.30 3.53L20.52 3.53L20.52 0.29L25.30 0.29L25.30 3.53ZM25.30 17.69L20.52 17.69L20.52 5.02L25.30 5.02L25.30 17.69ZM33.50 0Q34.03 0 34.82 0.13Q35.62 0.26 36.10 0.43L36.10 0.43L36.10 3.24L34.99 3.24Q34.22 3.24 33.94 3.53Q33.65 3.82 33.65 4.51L33.65 4.51L33.65 5.02L36.10 5.02L36.10 8.26L33.65 8.26L33.65 17.69L28.87 17.69L28.87 8.26L27.10 8.26L27.10 5.02L28.87 5.02L28.87 4.49Q28.87 2.04 30.07 1.02Q31.27 0 33.50 0L33.50 0ZM43.44 0Q43.97 0 44.76 0.13Q45.55 0.26 46.03 0.43L46.03 0.43L46.03 3.24L44.93 3.24Q44.16 3.24 43.87 3.53Q43.58 3.82 43.58 4.51L43.58 4.51L43.58 5.02L46.03 5.02L46.03 8.26L43.58 8.26L43.58 17.69L38.81 17.69L38.81 8.26L37.03 8.26L37.03 5.02L38.81 5.02L38.81 4.49Q38.81 2.04 40.01 1.02Q41.21 0 43.44 0L43.44 0ZM56.33 17.30Q55.34 19.97 53.92 21.35Q52.49 22.73 49.92 22.73L49.92 22.73Q48.36 22.73 47.16 22.30L47.16 22.30L47.16 19.44L49.08 19.44Q50.88 19.44 51.22 17.69L51.22 17.69L46.18 5.02L51.31 5.02L53.74 13.44L53.90 13.44L56.14 5.02L60.84 5.02L56.33 17.30Z" transform="translate(0, 45.75)"></path></svg>